<mxfile host="www.draw.io" modified="2020-03-04T13:52:25.623Z" agent="Mozilla/5.0 (Windows NT 10.0; Win64; x64) AppleWebKit/537.36 (KHTML, like Gecko) Chrome/80.0.3987.132 Safari/537.36" etag="WhIpgtY2MOoI0qOypphB" version="12.7.9" type="github">
  <diagram id="C5RBs43oDa-KdzZeNtuy" name="Page-1">
    <mxGraphModel dx="2062" dy="1164" grid="1" gridSize="10" guides="1" tooltips="1" connect="1" arrows="1" fold="1" page="1" pageScale="1" pageWidth="827" pageHeight="1169" math="0" shadow="0">
      <root>
        <mxCell id="WIyWlLk6GJQsqaUBKTNV-0" />
        <mxCell id="WIyWlLk6GJQsqaUBKTNV-1" parent="WIyWlLk6GJQsqaUBKTNV-0" />
        <mxCell id="zkfFHV4jXpPFQw0GAbJ--0" value="clsStaffCollection" style="swimlane;fontStyle=0;align=center;verticalAlign=top;childLayout=stackLayout;horizontal=1;startSize=26;horizontalStack=0;resizeParent=1;resizeLast=0;collapsible=1;marginBottom=0;rounded=0;shadow=0;strokeWidth=1;" parent="WIyWlLk6GJQsqaUBKTNV-1" vertex="1">
          <mxGeometry x="530" y="130" width="140" height="180" as="geometry">
            <mxRectangle x="230" y="140" width="160" height="26" as="alternateBounds" />
          </mxGeometry>
        </mxCell>
        <mxCell id="zkfFHV4jXpPFQw0GAbJ--2" value="Count : int&#xa;StaffList : List&lt;clsStaff&gt;&#xa;ThisStaff : clsStaff" style="text;align=left;verticalAlign=top;spacingLeft=4;spacingRight=4;overflow=hidden;rotatable=0;points=[[0,0.5],[1,0.5]];portConstraint=eastwest;rounded=0;shadow=0;html=0;" parent="zkfFHV4jXpPFQw0GAbJ--0" vertex="1">
          <mxGeometry y="26" width="140" height="64" as="geometry" />
        </mxCell>
        <mxCell id="zkfFHV4jXpPFQw0GAbJ--4" value="" style="line;html=1;strokeWidth=1;align=left;verticalAlign=middle;spacingTop=-1;spacingLeft=3;spacingRight=3;rotatable=0;labelPosition=right;points=[];portConstraint=eastwest;" parent="zkfFHV4jXpPFQw0GAbJ--0" vertex="1">
          <mxGeometry y="90" width="140" height="8" as="geometry" />
        </mxCell>
        <mxCell id="zkfFHV4jXpPFQw0GAbJ--5" value="Add(int, S) : void&#xa;Delete() : void&#xa;Edit() : void&#xa;Filter() : void&#xa;List() : String" style="text;align=left;verticalAlign=top;spacingLeft=4;spacingRight=4;overflow=hidden;rotatable=0;points=[[0,0.5],[1,0.5]];portConstraint=eastwest;" parent="zkfFHV4jXpPFQw0GAbJ--0" vertex="1">
          <mxGeometry y="98" width="140" height="82" as="geometry" />
        </mxCell>
        <mxCell id="zr9I7Tr6pkjSFJ7Eo5gw-0" style="edgeStyle=orthogonalEdgeStyle;rounded=0;orthogonalLoop=1;jettySize=auto;html=1;exitX=1;exitY=0.5;exitDx=0;exitDy=0;" parent="zkfFHV4jXpPFQw0GAbJ--0" source="zkfFHV4jXpPFQw0GAbJ--2" target="zkfFHV4jXpPFQw0GAbJ--2" edge="1">
          <mxGeometry relative="1" as="geometry" />
        </mxCell>
        <mxCell id="zr9I7Tr6pkjSFJ7Eo5gw-1" style="edgeStyle=orthogonalEdgeStyle;rounded=0;orthogonalLoop=1;jettySize=auto;html=1;exitX=1;exitY=0.5;exitDx=0;exitDy=0;" parent="zkfFHV4jXpPFQw0GAbJ--0" source="zkfFHV4jXpPFQw0GAbJ--5" target="zkfFHV4jXpPFQw0GAbJ--5" edge="1">
          <mxGeometry relative="1" as="geometry" />
        </mxCell>
        <mxCell id="zkfFHV4jXpPFQw0GAbJ--17" value="clsStaff" style="swimlane;fontStyle=0;align=center;verticalAlign=top;childLayout=stackLayout;horizontal=1;startSize=26;horizontalStack=0;resizeParent=1;resizeLast=0;collapsible=1;marginBottom=0;rounded=0;shadow=0;strokeWidth=1;" parent="WIyWlLk6GJQsqaUBKTNV-1" vertex="1">
          <mxGeometry x="680" y="130" width="98" height="110" as="geometry">
            <mxRectangle x="550" y="140" width="160" height="26" as="alternateBounds" />
          </mxGeometry>
        </mxCell>
        <mxCell id="zkfFHV4jXpPFQw0GAbJ--19" value="Attributes : int" style="text;align=left;verticalAlign=top;spacingLeft=4;spacingRight=4;overflow=hidden;rotatable=0;points=[[0,0.5],[1,0.5]];portConstraint=eastwest;rounded=0;shadow=0;html=0;" parent="zkfFHV4jXpPFQw0GAbJ--17" vertex="1">
          <mxGeometry y="26" width="98" height="26" as="geometry" />
        </mxCell>
        <mxCell id="zkfFHV4jXpPFQw0GAbJ--23" value="" style="line;html=1;strokeWidth=1;align=left;verticalAlign=middle;spacingTop=-1;spacingLeft=3;spacingRight=3;rotatable=0;labelPosition=right;points=[];portConstraint=eastwest;" parent="zkfFHV4jXpPFQw0GAbJ--17" vertex="1">
          <mxGeometry y="52" width="98" height="8" as="geometry" />
        </mxCell>
        <mxCell id="5dhsF2KvYgqkiXQO9fp8-1" value="&amp;nbsp;Find() : void" style="text;html=1;strokeColor=none;fillColor=none;align=left;verticalAlign=middle;whiteSpace=wrap;rounded=0;" parent="zkfFHV4jXpPFQw0GAbJ--17" vertex="1">
          <mxGeometry y="60" width="98" height="20" as="geometry" />
        </mxCell>
        <mxCell id="5dhsF2KvYgqkiXQO9fp8-2" value="&amp;nbsp;Validate : void" style="text;html=1;strokeColor=none;fillColor=none;align=left;verticalAlign=middle;whiteSpace=wrap;rounded=0;" parent="zkfFHV4jXpPFQw0GAbJ--17" vertex="1">
          <mxGeometry y="80" width="98" height="20" as="geometry" />
        </mxCell>
        <mxCell id="zr9I7Tr6pkjSFJ7Eo5gw-5" value="ClsReview" style="swimlane;fontStyle=0;align=center;verticalAlign=top;childLayout=stackLayout;horizontal=1;startSize=26;horizontalStack=0;resizeParent=1;resizeParentMax=0;resizeLast=0;collapsible=1;marginBottom=0;" parent="WIyWlLk6GJQsqaUBKTNV-1" vertex="1">
          <mxGeometry x="10" y="60" width="200" height="240" as="geometry" />
        </mxCell>
        <mxCell id="zr9I7Tr6pkjSFJ7Eo5gw-6" value="Grade: int&#xa;" style="text;strokeColor=none;fillColor=none;align=left;verticalAlign=top;spacingLeft=4;spacingRight=4;overflow=hidden;rotatable=0;points=[[0,0.5],[1,0.5]];portConstraint=eastwest;fontSize=10;" parent="zr9I7Tr6pkjSFJ7Eo5gw-5" vertex="1">
          <mxGeometry y="26" width="200" height="26" as="geometry" />
        </mxCell>
        <mxCell id="zr9I7Tr6pkjSFJ7Eo5gw-10" value="&amp;nbsp;Description: String" style="text;html=1;strokeColor=none;fillColor=none;align=left;verticalAlign=middle;whiteSpace=wrap;rounded=0;fontSize=10;" parent="zr9I7Tr6pkjSFJ7Eo5gw-5" vertex="1">
          <mxGeometry y="52" width="200" height="20" as="geometry" />
        </mxCell>
        <mxCell id="zr9I7Tr6pkjSFJ7Eo5gw-11" value="&amp;nbsp;DateAdded: DateTime" style="text;html=1;strokeColor=none;fillColor=none;align=left;verticalAlign=middle;whiteSpace=wrap;rounded=0;fontSize=10;" parent="zr9I7Tr6pkjSFJ7Eo5gw-5" vertex="1">
          <mxGeometry y="72" width="200" height="20" as="geometry" />
        </mxCell>
        <mxCell id="zr9I7Tr6pkjSFJ7Eo5gw-13" value="&amp;nbsp;ReviewId: int" style="text;html=1;strokeColor=none;fillColor=none;align=left;verticalAlign=middle;whiteSpace=wrap;rounded=0;fontSize=10;" parent="zr9I7Tr6pkjSFJ7Eo5gw-5" vertex="1">
          <mxGeometry y="92" width="200" height="20" as="geometry" />
        </mxCell>
        <mxCell id="MXbbzvUp0wS9nQIhY3ox-0" value="&amp;nbsp;Edited: Boolean" style="text;html=1;strokeColor=none;fillColor=none;align=left;verticalAlign=middle;whiteSpace=wrap;rounded=0;fontSize=10;" vertex="1" parent="zr9I7Tr6pkjSFJ7Eo5gw-5">
          <mxGeometry y="112" width="200" height="20" as="geometry" />
        </mxCell>
        <mxCell id="MXbbzvUp0wS9nQIhY3ox-1" value="&amp;nbsp;TemplateId: int" style="text;html=1;strokeColor=none;fillColor=none;align=left;verticalAlign=middle;whiteSpace=wrap;rounded=0;fontSize=10;" vertex="1" parent="zr9I7Tr6pkjSFJ7Eo5gw-5">
          <mxGeometry y="132" width="200" height="20" as="geometry" />
        </mxCell>
        <mxCell id="zr9I7Tr6pkjSFJ7Eo5gw-7" value="" style="line;strokeWidth=1;fillColor=none;align=left;verticalAlign=middle;spacingTop=-1;spacingLeft=3;spacingRight=3;rotatable=0;labelPosition=right;points=[];portConstraint=eastwest;" parent="zr9I7Tr6pkjSFJ7Eo5gw-5" vertex="1">
          <mxGeometry y="152" width="200" height="8" as="geometry" />
        </mxCell>
        <mxCell id="zr9I7Tr6pkjSFJ7Eo5gw-8" value="DaysAfterAdding(): int" style="text;strokeColor=none;fillColor=none;align=left;verticalAlign=top;spacingLeft=4;spacingRight=4;overflow=hidden;rotatable=0;points=[[0,0.5],[1,0.5]];portConstraint=eastwest;fontSize=10;" parent="zr9I7Tr6pkjSFJ7Eo5gw-5" vertex="1">
          <mxGeometry y="160" width="200" height="20" as="geometry" />
        </mxCell>
        <mxCell id="zr9I7Tr6pkjSFJ7Eo5gw-31" value="&lt;font style=&quot;font-size: 9px&quot;&gt;&amp;nbsp;GetGrade() : int&lt;/font&gt;" style="text;html=1;strokeColor=none;fillColor=none;align=left;verticalAlign=middle;whiteSpace=wrap;rounded=0;fontSize=12;" parent="zr9I7Tr6pkjSFJ7Eo5gw-5" vertex="1">
          <mxGeometry y="180" width="200" height="20" as="geometry" />
        </mxCell>
        <mxCell id="zr9I7Tr6pkjSFJ7Eo5gw-32" value="&lt;font style=&quot;font-size: 9px&quot;&gt;&amp;nbsp;GetReviewId(): int&lt;br&gt;&lt;/font&gt;" style="text;html=1;strokeColor=none;fillColor=none;align=left;verticalAlign=middle;whiteSpace=wrap;rounded=0;fontSize=12;" parent="zr9I7Tr6pkjSFJ7Eo5gw-5" vertex="1">
          <mxGeometry y="200" width="200" height="20" as="geometry" />
        </mxCell>
        <mxCell id="rpGWQLYKD86WexoY4fji-0" value="&lt;span style=&quot;font-size: x-small&quot;&gt;&amp;nbsp;Validate(): void&lt;/span&gt;" style="text;html=1;strokeColor=none;fillColor=none;align=left;verticalAlign=middle;whiteSpace=wrap;rounded=0;" parent="zr9I7Tr6pkjSFJ7Eo5gw-5" vertex="1">
          <mxGeometry y="220" width="200" height="20" as="geometry" />
        </mxCell>
        <mxCell id="zr9I7Tr6pkjSFJ7Eo5gw-20" value="ClsReviewCollection" style="swimlane;fontStyle=0;align=center;verticalAlign=top;childLayout=stackLayout;horizontal=1;startSize=26;horizontalStack=0;resizeParent=1;resizeParentMax=0;resizeLast=0;collapsible=1;marginBottom=0;fontSize=12;" parent="WIyWlLk6GJQsqaUBKTNV-1" vertex="1">
          <mxGeometry x="234" y="70" width="180" height="200" as="geometry" />
        </mxCell>
        <mxCell id="zr9I7Tr6pkjSFJ7Eo5gw-24" value="&lt;span style=&quot;white-space: nowrap; font-size: 10px;&quot;&gt;ReviewList: List(clsReview)&lt;/span&gt;" style="text;html=1;strokeColor=none;fillColor=none;align=left;verticalAlign=middle;whiteSpace=wrap;rounded=0;fontSize=10;" parent="zr9I7Tr6pkjSFJ7Eo5gw-20" vertex="1">
          <mxGeometry y="26" width="180" height="20" as="geometry" />
        </mxCell>
        <mxCell id="zr9I7Tr6pkjSFJ7Eo5gw-22" value="" style="line;strokeWidth=1;fillColor=none;align=left;verticalAlign=middle;spacingTop=-1;spacingLeft=3;spacingRight=3;rotatable=0;labelPosition=right;points=[];portConstraint=eastwest;" parent="zr9I7Tr6pkjSFJ7Eo5gw-20" vertex="1">
          <mxGeometry y="46" width="180" height="8" as="geometry" />
        </mxCell>
        <mxCell id="zr9I7Tr6pkjSFJ7Eo5gw-23" value="DeleteReview(int): void" style="text;strokeColor=none;fillColor=none;align=left;verticalAlign=top;spacingLeft=4;spacingRight=4;overflow=hidden;rotatable=0;points=[[0,0.5],[1,0.5]];portConstraint=eastwest;fontSize=10;" parent="zr9I7Tr6pkjSFJ7Eo5gw-20" vertex="1">
          <mxGeometry y="54" width="180" height="26" as="geometry" />
        </mxCell>
        <mxCell id="zr9I7Tr6pkjSFJ7Eo5gw-25" value="&amp;nbsp;AddReview(clsReview): void" style="text;html=1;strokeColor=none;fillColor=none;align=left;verticalAlign=middle;whiteSpace=wrap;rounded=0;fontSize=10;" parent="zr9I7Tr6pkjSFJ7Eo5gw-20" vertex="1">
          <mxGeometry y="80" width="180" height="20" as="geometry" />
        </mxCell>
        <mxCell id="zr9I7Tr6pkjSFJ7Eo5gw-27" value="&amp;nbsp;SortByGrade(int): List(clsReview)" style="text;html=1;strokeColor=none;fillColor=none;align=left;verticalAlign=middle;whiteSpace=wrap;rounded=0;fontSize=10;" parent="zr9I7Tr6pkjSFJ7Eo5gw-20" vertex="1">
          <mxGeometry y="100" width="180" height="20" as="geometry" />
        </mxCell>
        <mxCell id="zr9I7Tr6pkjSFJ7Eo5gw-29" value="&amp;nbsp;SortByDate(): List(clsReview)" style="text;html=1;strokeColor=none;fillColor=none;align=left;verticalAlign=middle;whiteSpace=wrap;rounded=0;fontSize=10;" parent="zr9I7Tr6pkjSFJ7Eo5gw-20" vertex="1">
          <mxGeometry y="120" width="180" height="20" as="geometry" />
        </mxCell>
        <mxCell id="zr9I7Tr6pkjSFJ7Eo5gw-30" value="&amp;nbsp;FilterByGrade(): List(clsReview)" style="text;html=1;strokeColor=none;fillColor=none;align=left;verticalAlign=middle;whiteSpace=wrap;rounded=0;fontSize=10;" parent="zr9I7Tr6pkjSFJ7Eo5gw-20" vertex="1">
          <mxGeometry y="140" width="180" height="20" as="geometry" />
        </mxCell>
        <mxCell id="zr9I7Tr6pkjSFJ7Eo5gw-12" value="&lt;font style=&quot;font-size: 10px&quot;&gt;&amp;nbsp;EditReview(int, String, DateTime): void&lt;/font&gt;" style="text;html=1;strokeColor=none;fillColor=none;align=left;verticalAlign=middle;whiteSpace=wrap;rounded=0;" parent="zr9I7Tr6pkjSFJ7Eo5gw-20" vertex="1">
          <mxGeometry y="160" width="180" height="20" as="geometry" />
        </mxCell>
        <mxCell id="rpGWQLYKD86WexoY4fji-1" value="&lt;font style=&quot;font-size: 9px&quot;&gt;&amp;nbsp;FindReview(int): ClsReview&lt;/font&gt;" style="text;html=1;strokeColor=none;fillColor=none;align=left;verticalAlign=middle;whiteSpace=wrap;rounded=0;" parent="zr9I7Tr6pkjSFJ7Eo5gw-20" vertex="1">
          <mxGeometry y="180" width="180" height="20" as="geometry" />
        </mxCell>
        <mxCell id="9YZArwdCo8p-yGKqYNYX-17" value="clsProduct" style="swimlane;fontStyle=0;align=center;verticalAlign=top;childLayout=stackLayout;horizontal=1;startSize=26;horizontalStack=0;resizeParent=1;resizeLast=0;collapsible=1;marginBottom=0;rounded=0;shadow=0;strokeWidth=1;fontSize=11;" parent="WIyWlLk6GJQsqaUBKTNV-1" vertex="1">
          <mxGeometry x="10" y="360" width="250" height="240" as="geometry">
            <mxRectangle x="130" y="380" width="160" height="26" as="alternateBounds" />
          </mxGeometry>
        </mxCell>
        <mxCell id="9YZArwdCo8p-yGKqYNYX-19" value="&lt;font style=&quot;font-size: 9px&quot;&gt;ProductId: int&lt;br&gt;ProductName: String&lt;br&gt;isAvailable: boolean&lt;br&gt;ProductPrice: int&lt;br&gt;ProductNumberOfSales: int&lt;br&gt;ProductImage: VARBINARY&lt;br&gt;ProductCreatedAt: date&lt;br&gt;&lt;br&gt;&lt;/font&gt;" style="text;html=1;" parent="9YZArwdCo8p-yGKqYNYX-17" vertex="1">
          <mxGeometry y="26" width="250" height="114" as="geometry" />
        </mxCell>
        <mxCell id="9YZArwdCo8p-yGKqYNYX-30" value="" style="line;html=1;strokeWidth=1;align=left;verticalAlign=middle;spacingTop=-1;spacingLeft=3;spacingRight=3;rotatable=0;labelPosition=right;points=[];portConstraint=eastwest;" parent="9YZArwdCo8p-yGKqYNYX-17" vertex="1">
          <mxGeometry y="140" width="250" height="8" as="geometry" />
        </mxCell>
        <mxCell id="9YZArwdCo8p-yGKqYNYX-21" value="&lt;font style=&quot;font-size: 9px&quot;&gt;addProduct(int, String, boolean, int, VARBINARY, date): void&lt;br&gt;ChangePrice(int): void&lt;br&gt;UpdateSales(): void&lt;br&gt;ChangeName(String): DateTime&lt;br&gt;ChangeImage(VARBINARY): void&lt;br&gt;setAvailability(boolean): true&lt;/font&gt;" style="text;html=1;" parent="9YZArwdCo8p-yGKqYNYX-17" vertex="1">
          <mxGeometry y="148" width="250" height="92" as="geometry" />
        </mxCell>
        <mxCell id="9YZArwdCo8p-yGKqYNYX-22" value="clsProductList" style="swimlane;fontStyle=0;align=center;verticalAlign=top;childLayout=stackLayout;horizontal=1;startSize=26;horizontalStack=0;resizeParent=1;resizeLast=0;collapsible=1;marginBottom=0;rounded=0;shadow=0;strokeWidth=1;fontSize=11;" parent="WIyWlLk6GJQsqaUBKTNV-1" vertex="1">
          <mxGeometry x="270" y="360" width="150" height="140" as="geometry">
            <mxRectangle x="340" y="380" width="170" height="26" as="alternateBounds" />
          </mxGeometry>
        </mxCell>
        <mxCell id="9YZArwdCo8p-yGKqYNYX-23" value="ProductList: List(clsProduct)" style="text;align=left;verticalAlign=top;spacingLeft=4;spacingRight=4;overflow=hidden;rotatable=0;points=[[0,0.5],[1,0.5]];portConstraint=eastwest;fontSize=9;" parent="9YZArwdCo8p-yGKqYNYX-22" vertex="1">
          <mxGeometry y="26" width="150" height="26" as="geometry" />
        </mxCell>
        <mxCell id="9YZArwdCo8p-yGKqYNYX-24" value="" style="line;html=1;strokeWidth=1;align=left;verticalAlign=middle;spacingTop=-1;spacingLeft=3;spacingRight=3;rotatable=0;labelPosition=right;points=[];portConstraint=eastwest;" parent="9YZArwdCo8p-yGKqYNYX-22" vertex="1">
          <mxGeometry y="52" width="150" height="8" as="geometry" />
        </mxCell>
        <mxCell id="9YZArwdCo8p-yGKqYNYX-25" value="&lt;font style=&quot;font-size: 9px&quot;&gt;DeleteProduct(int): void&lt;br&gt;SortByReview(int): List(clsReview)&lt;br&gt;SortByPrice(int): List(clsProduct)&lt;br&gt;SortByDate(): List(clsReview)&lt;br&gt;FilterByPrice&lt;/font&gt;" style="text;html=1;" parent="9YZArwdCo8p-yGKqYNYX-22" vertex="1">
          <mxGeometry y="60" width="150" height="80" as="geometry" />
        </mxCell>
        <mxCell id="r3yyz2FJ0WJUD2Cwhg8p-0" value="clsCustomerModel" style="swimlane;fontStyle=0;align=center;verticalAlign=top;childLayout=stackLayout;horizontal=1;startSize=26;horizontalStack=0;resizeParent=1;resizeLast=0;collapsible=1;marginBottom=0;rounded=0;shadow=0;strokeWidth=1;fontSize=11;" parent="WIyWlLk6GJQsqaUBKTNV-1" vertex="1">
          <mxGeometry x="10" y="630" width="250" height="128" as="geometry">
            <mxRectangle x="130" y="380" width="160" height="26" as="alternateBounds" />
          </mxGeometry>
        </mxCell>
        <mxCell id="r3yyz2FJ0WJUD2Cwhg8p-1" value="&lt;font style=&quot;font-size: 9px&quot;&gt;CustomerId: int&lt;br&gt;CustomerEmail: string&lt;br&gt;CustomerName: string&lt;br&gt;CustomerPassword: string&lt;br&gt;CustomerRegistrationDate: DateTime&lt;br&gt;IsBusinessCustomer: bool&lt;br&gt;&lt;/font&gt;" style="text;html=1;" parent="r3yyz2FJ0WJUD2Cwhg8p-0" vertex="1">
          <mxGeometry y="26" width="250" height="94" as="geometry" />
        </mxCell>
        <mxCell id="r3yyz2FJ0WJUD2Cwhg8p-4" value="clsCustomerCollection" style="swimlane;fontStyle=0;align=center;verticalAlign=top;childLayout=stackLayout;horizontal=1;startSize=26;horizontalStack=0;resizeParent=1;resizeParentMax=0;resizeLast=0;collapsible=1;marginBottom=0;fontSize=12;" parent="WIyWlLk6GJQsqaUBKTNV-1" vertex="1">
          <mxGeometry x="270" y="630" width="270" height="220" as="geometry" />
        </mxCell>
        <mxCell id="r3yyz2FJ0WJUD2Cwhg8p-5" value="&lt;span style=&quot;white-space: nowrap ; font-size: 10px&quot;&gt;CustomerList: List&amp;lt;clsCustomer&amp;gt;&lt;/span&gt;" style="text;html=1;strokeColor=none;fillColor=none;align=left;verticalAlign=middle;whiteSpace=wrap;rounded=0;fontSize=10;" parent="r3yyz2FJ0WJUD2Cwhg8p-4" vertex="1">
          <mxGeometry y="26" width="270" height="20" as="geometry" />
        </mxCell>
        <mxCell id="r3yyz2FJ0WJUD2Cwhg8p-6" value="" style="line;strokeWidth=1;fillColor=none;align=left;verticalAlign=middle;spacingTop=-1;spacingLeft=3;spacingRight=3;rotatable=0;labelPosition=right;points=[];portConstraint=eastwest;" parent="r3yyz2FJ0WJUD2Cwhg8p-4" vertex="1">
          <mxGeometry y="46" width="270" height="8" as="geometry" />
        </mxCell>
        <mxCell id="r3yyz2FJ0WJUD2Cwhg8p-7" value="FilterCustomers(Predicate) : List&lt;clsCustomer&gt;" style="text;strokeColor=none;fillColor=none;align=left;verticalAlign=top;spacingLeft=4;spacingRight=4;overflow=hidden;rotatable=0;points=[[0,0.5],[1,0.5]];portConstraint=eastwest;fontSize=10;" parent="r3yyz2FJ0WJUD2Cwhg8p-4" vertex="1">
          <mxGeometry y="54" width="270" height="26" as="geometry" />
        </mxCell>
        <mxCell id="r3yyz2FJ0WJUD2Cwhg8p-8" value="FindCustomer(Predicate): clsCustomer" style="text;html=1;strokeColor=none;fillColor=none;align=left;verticalAlign=middle;whiteSpace=wrap;rounded=0;fontSize=10;" parent="r3yyz2FJ0WJUD2Cwhg8p-4" vertex="1">
          <mxGeometry y="80" width="270" height="20" as="geometry" />
        </mxCell>
        <mxCell id="r3yyz2FJ0WJUD2Cwhg8p-9" value="SortCustomers(Predicate): List&amp;lt;clsCustomer&amp;gt;" style="text;html=1;strokeColor=none;fillColor=none;align=left;verticalAlign=middle;whiteSpace=wrap;rounded=0;fontSize=10;" parent="r3yyz2FJ0WJUD2Cwhg8p-4" vertex="1">
          <mxGeometry y="100" width="270" height="20" as="geometry" />
        </mxCell>
        <mxCell id="r3yyz2FJ0WJUD2Cwhg8p-10" value="ListAllCustomers(): List&amp;lt;clsCustomer&amp;gt;" style="text;html=1;strokeColor=none;fillColor=none;align=left;verticalAlign=middle;whiteSpace=wrap;rounded=0;fontSize=10;" parent="r3yyz2FJ0WJUD2Cwhg8p-4" vertex="1">
          <mxGeometry y="120" width="270" height="20" as="geometry" />
        </mxCell>
        <mxCell id="4teHySgLaA4iQlNJU0hd-2" value="DeleteCustomer(int): void" style="text;html=1;strokeColor=none;fillColor=none;align=left;verticalAlign=middle;whiteSpace=wrap;rounded=0;fontSize=10;" parent="r3yyz2FJ0WJUD2Cwhg8p-4" vertex="1">
          <mxGeometry y="140" width="270" height="20" as="geometry" />
        </mxCell>
        <mxCell id="4teHySgLaA4iQlNJU0hd-3" value="AddCustomer(string, string, string, bool) : void" style="text;html=1;strokeColor=none;fillColor=none;align=left;verticalAlign=middle;whiteSpace=wrap;rounded=0;fontSize=10;" parent="r3yyz2FJ0WJUD2Cwhg8p-4" vertex="1">
          <mxGeometry y="160" width="270" height="20" as="geometry" />
        </mxCell>
        <mxCell id="4teHySgLaA4iQlNJU0hd-4" value="ChangeCustomerDetails(int): void" style="text;html=1;strokeColor=none;fillColor=none;align=left;verticalAlign=middle;whiteSpace=wrap;rounded=0;fontSize=10;" parent="r3yyz2FJ0WJUD2Cwhg8p-4" vertex="1">
          <mxGeometry y="180" width="270" height="20" as="geometry" />
        </mxCell>
        <mxCell id="4teHySgLaA4iQlNJU0hd-5" value="Validate(): void" style="text;html=1;strokeColor=none;fillColor=none;align=left;verticalAlign=middle;whiteSpace=wrap;rounded=0;fontSize=10;" parent="r3yyz2FJ0WJUD2Cwhg8p-4" vertex="1">
          <mxGeometry y="200" width="270" height="20" as="geometry" />
        </mxCell>
      </root>
    </mxGraphModel>
  </diagram>
</mxfile>
